M48
INCH
T01C0.028
T02C0.0354
T03C0.038
T04C0.04
%
T01
X+020386Y+021279
X+020386Y+020279
T02
X+014591Y+013899
X+014591Y+012899
X+014591Y+011899
X+014591Y+010899
X+012286Y+010468
X+010516Y+010468
X+010516Y+013028
X+012286Y+013028
X+015110Y+016750
X+016880Y+016750
X+016880Y+019310
X+015110Y+019310
X+017591Y+013899
X+017591Y+012899
X+017591Y+011899
X+017591Y+010899
X+020172Y+010360
X+021942Y+010360
X+021942Y+012920
X+020172Y+012920
X+016933Y+008299
X+015163Y+008299
X+015163Y+005739
X+016933Y+005739
X+009906Y+007341
X+007906Y+007341
X+006635Y+017100
X+006635Y+018100
X+006635Y+019100
X+006635Y+020100
T03
X+022366Y+017919
X+018366Y+017919
T04
X+006991Y+012538
X+006991Y+010538
T00
M30
