G04 DipTrace 2.4.0.2*
%INTopSilk.gbr*%
%MOIN*%
%ADD10C,0.0098*%
%ADD46C,0.0077*%
%ADD47C,0.0124*%
%FSLAX44Y44*%
G04*
G70*
G90*
G75*
G01*
%LNTopSilk*%
%LPD*%
X17114Y14368D2*
D10*
Y10431D1*
X15067D2*
X17114D1*
X15067Y14368D2*
Y10431D1*
Y14368D2*
X15854D1*
X17114D2*
X16327D1*
X15854D2*
G03X16327Y14368I236J0D01*
G01*
X7095Y7223D2*
Y7459D1*
X6977Y7341D2*
X7213D1*
X7406D2*
G02X7406Y7341I1500J0D01*
G01*
X14692Y19810D2*
X17380D1*
Y16310D1*
X14692D1*
Y19810D1*
X15130Y18872D2*
Y17122D1*
X16880Y18872D2*
Y17122D1*
X19755Y13420D2*
X22442D1*
Y9920D1*
X19755D1*
Y13420D1*
X20193Y12482D2*
Y10732D1*
X21943Y12482D2*
Y10732D1*
X10098Y13528D2*
X12786D1*
Y10028D1*
X10098D1*
Y13528D1*
X10536Y12591D2*
Y10841D1*
X12286Y12591D2*
Y10841D1*
X14745Y8799D2*
X17433D1*
Y5299D1*
X14745D1*
Y8799D1*
X15183Y7862D2*
Y6112D1*
X16933Y7862D2*
Y6112D1*
X7939Y13788D2*
X5991D1*
Y9830D1*
X7939D1*
Y13788D1*
G36*
X7991Y13538D2*
X5991D1*
Y13038D1*
X7991D1*
Y13538D1*
G37*
G36*
X7928Y13414D2*
X6116D1*
Y13351D1*
X7928D1*
Y13414D1*
G37*
G36*
X7991Y13726D2*
X7928D1*
D1*
X7991D1*
G37*
G36*
Y13788D2*
X5991D1*
Y13226D1*
X7991D1*
Y13788D1*
G37*
X8135Y22600D2*
D10*
X6135D1*
Y14600D1*
X8135D1*
Y22600D1*
X7885Y15600D2*
X7385D1*
X7885D2*
X7135D1*
X7635D2*
X7885Y15475D1*
X7635Y15600D2*
X7885Y15725D1*
X19368Y18419D2*
X21364D1*
Y17419D2*
Y18419D1*
X19368Y17419D2*
X21364D1*
X19368D2*
Y18419D1*
X21135Y19779D2*
X19636D1*
X21138Y19781D2*
G03X19633Y19781I-752J998D01*
G01*
X15678Y15100D2*
D46*
Y14741D1*
X15702Y14669D1*
X15750Y14622D1*
X15822Y14598D1*
X15870D1*
X15941Y14622D1*
X15990Y14669D1*
X16013Y14741D1*
Y15100D1*
X16192Y14980D2*
Y15004D1*
X16216Y15052D1*
X16240Y15076D1*
X16288Y15099D1*
X16383D1*
X16431Y15076D1*
X16455Y15052D1*
X16479Y15004D1*
Y14956D1*
X16455Y14908D1*
X16407Y14837D1*
X16168Y14598D1*
X16503D1*
X8734Y9454D2*
X8710Y9501D1*
X8662Y9549D1*
X8614Y9573D1*
X8519D1*
X8471Y9549D1*
X8423Y9501D1*
X8399Y9454D1*
X8375Y9382D1*
Y9262D1*
X8399Y9191D1*
X8423Y9143D1*
X8471Y9095D1*
X8519Y9071D1*
X8614D1*
X8662Y9095D1*
X8710Y9143D1*
X8734Y9191D1*
X8888Y9477D2*
X8936Y9501D1*
X9008Y9573D1*
Y9071D1*
X15534Y20374D2*
Y19872D1*
Y20303D2*
X15583Y20350D1*
X15630Y20374D1*
X15702D1*
X15750Y20350D1*
X15798Y20303D1*
X15822Y20231D1*
Y20183D1*
X15798Y20111D1*
X15750Y20063D1*
X15702Y20040D1*
X15630D1*
X15583Y20063D1*
X15534Y20111D1*
X15976Y20542D2*
Y20040D1*
Y20303D2*
X16024Y20351D1*
X16072Y20374D1*
X16144D1*
X16191Y20351D1*
X16239Y20303D1*
X16263Y20231D1*
Y20183D1*
X16239Y20111D1*
X16191Y20064D1*
X16144Y20040D1*
X16072D1*
X16024Y20064D1*
X15976Y20111D1*
X16417Y20446D2*
X16466Y20470D1*
X16537Y20541D1*
Y20040D1*
X20490Y13985D2*
Y13482D1*
Y13913D2*
X20538Y13960D1*
X20585Y13985D1*
X20657D1*
X20705Y13960D1*
X20753Y13913D1*
X20777Y13841D1*
Y13793D1*
X20753Y13722D1*
X20705Y13673D1*
X20657Y13650D1*
X20585D1*
X20538Y13673D1*
X20490Y13722D1*
X20932Y14152D2*
Y13650D1*
Y13913D2*
X20980Y13961D1*
X21027Y13985D1*
X21099D1*
X21147Y13961D1*
X21195Y13913D1*
X21218Y13841D1*
Y13793D1*
X21195Y13722D1*
X21147Y13674D1*
X21099Y13650D1*
X21027D1*
X20980Y13674D1*
X20932Y13722D1*
X21397Y14032D2*
Y14056D1*
X21421Y14104D1*
X21445Y14128D1*
X21493Y14152D1*
X21588D1*
X21636Y14128D1*
X21660Y14104D1*
X21684Y14056D1*
Y14008D1*
X21660Y13960D1*
X21612Y13889D1*
X21373Y13650D1*
X21708D1*
X10833Y14093D2*
Y13591D1*
Y14021D2*
X10881Y14069D1*
X10929Y14093D1*
X11001D1*
X11049Y14069D1*
X11096Y14021D1*
X11121Y13949D1*
Y13901D1*
X11096Y13830D1*
X11049Y13782D1*
X11001Y13758D1*
X10929D1*
X10881Y13782D1*
X10833Y13830D1*
X11275Y14260D2*
Y13758D1*
Y14021D2*
X11323Y14069D1*
X11371Y14093D1*
X11442D1*
X11490Y14069D1*
X11538Y14021D1*
X11562Y13949D1*
Y13902D1*
X11538Y13830D1*
X11490Y13782D1*
X11442Y13758D1*
X11371D1*
X11323Y13782D1*
X11275Y13830D1*
X11764Y14260D2*
X12027D1*
X11884Y14069D1*
X11956D1*
X12003Y14045D1*
X12027Y14021D1*
X12051Y13949D1*
Y13902D1*
X12027Y13830D1*
X11979Y13782D1*
X11907Y13758D1*
X11836D1*
X11764Y13782D1*
X11741Y13806D1*
X11716Y13854D1*
X15468Y9364D2*
Y8862D1*
Y9292D2*
X15516Y9340D1*
X15564Y9364D1*
X15636D1*
X15684Y9340D1*
X15731Y9292D1*
X15756Y9220D1*
Y9172D1*
X15731Y9101D1*
X15684Y9053D1*
X15636Y9029D1*
X15564D1*
X15516Y9053D1*
X15468Y9101D1*
X15910Y9532D2*
Y9029D1*
Y9292D2*
X15958Y9340D1*
X16006Y9364D1*
X16077D1*
X16125Y9340D1*
X16173Y9292D1*
X16197Y9220D1*
Y9173D1*
X16173Y9101D1*
X16125Y9054D1*
X16077Y9029D1*
X16006D1*
X15958Y9054D1*
X15910Y9101D1*
X16591Y9029D2*
Y9531D1*
X16351Y9197D1*
X16710D1*
X6567Y14521D2*
Y14162D1*
X6591Y14090D1*
X6639Y14043D1*
X6711Y14018D1*
X6758D1*
X6830Y14043D1*
X6878Y14090D1*
X6902Y14162D1*
Y14521D1*
X7295Y14018D2*
Y14520D1*
X7056Y14186D1*
X7415D1*
X6723Y23332D2*
Y22973D1*
X6747Y22902D1*
X6795Y22854D1*
X6867Y22830D1*
X6914D1*
X6986Y22854D1*
X7034Y22902D1*
X7058Y22973D1*
Y23332D1*
X7499D2*
X7260D1*
X7236Y23117D1*
X7260Y23140D1*
X7332Y23165D1*
X7403D1*
X7475Y23140D1*
X7523Y23093D1*
X7547Y23021D1*
Y22973D1*
X7523Y22902D1*
X7475Y22853D1*
X7403Y22830D1*
X7332D1*
X7260Y22853D1*
X7236Y22878D1*
X7212Y22925D1*
X20061Y18912D2*
X20276D1*
X20348Y18936D1*
X20372Y18960D1*
X20396Y19007D1*
Y19055D1*
X20372Y19103D1*
X20348Y19127D1*
X20276Y19151D1*
X20061D1*
Y18649D1*
X20229Y18912D2*
X20396Y18649D1*
X20550Y19055D2*
X20599Y19079D1*
X20670Y19150D1*
Y18649D1*
X20081Y22761D2*
Y22259D1*
X20249D1*
X20320Y22283D1*
X20368Y22331D1*
X20392Y22379D1*
X20416Y22450D1*
Y22570D1*
X20392Y22642D1*
X20368Y22689D1*
X20320Y22737D1*
X20249Y22761D1*
X20081D1*
X20570Y22665D2*
X20618Y22689D1*
X20690Y22761D1*
Y22259D1*
X9157Y21384D2*
D47*
X9501D1*
X9616Y21423D1*
X9655Y21461D1*
X9693Y21537D1*
Y21614D1*
X9655Y21690D1*
X9616Y21729D1*
X9501Y21767D1*
X9157D1*
Y20963D1*
X9425Y21384D2*
X9693Y20963D1*
X9940Y21269D2*
X10399D1*
Y21346D1*
X10361Y21423D1*
X10323Y21461D1*
X10246Y21499D1*
X10131D1*
X10055Y21461D1*
X9978Y21384D1*
X9940Y21269D1*
Y21193D1*
X9978Y21078D1*
X10055Y21002D1*
X10131Y20963D1*
X10246D1*
X10323Y21002D1*
X10399Y21078D1*
X10646Y21499D2*
Y20963D1*
Y21346D2*
X10761Y21461D1*
X10837Y21499D1*
X10952D1*
X11029Y21461D1*
X11067Y21346D1*
Y20963D1*
Y21346D2*
X11181Y21461D1*
X11258Y21499D1*
X11373D1*
X11449Y21461D1*
X11488Y21346D1*
Y20963D1*
X11926Y21499D2*
X11850Y21461D1*
X11773Y21384D1*
X11735Y21269D1*
Y21193D1*
X11773Y21078D1*
X11850Y21002D1*
X11926Y20963D1*
X12041D1*
X12118Y21002D1*
X12194Y21078D1*
X12233Y21193D1*
Y21269D1*
X12194Y21384D1*
X12118Y21461D1*
X12041Y21499D1*
X11926D1*
X12595Y21767D2*
Y21116D1*
X12633Y21002D1*
X12710Y20963D1*
X12786D1*
X12480Y21499D2*
X12748D1*
X13033Y21269D2*
X13492D1*
Y21346D1*
X13454Y21423D1*
X13416Y21461D1*
X13339Y21499D1*
X13224D1*
X13148Y21461D1*
X13071Y21384D1*
X13033Y21269D1*
Y21193D1*
X13071Y21078D1*
X13148Y21002D1*
X13224Y20963D1*
X13339D1*
X13416Y21002D1*
X13492Y21078D1*
X9780Y20198D2*
X9742Y20274D1*
X9665Y20351D1*
X9589Y20389D1*
X9436D1*
X9359Y20351D1*
X9283Y20274D1*
X9244Y20198D1*
X9206Y20083D1*
Y19891D1*
X9244Y19777D1*
X9283Y19700D1*
X9359Y19624D1*
X9436Y19585D1*
X9589D1*
X9665Y19624D1*
X9742Y19700D1*
X9780Y19777D1*
X10218Y20121D2*
X10142Y20083D1*
X10065Y20006D1*
X10027Y19891D1*
Y19815D1*
X10065Y19700D1*
X10142Y19624D1*
X10218Y19585D1*
X10333D1*
X10410Y19624D1*
X10486Y19700D1*
X10525Y19815D1*
Y19891D1*
X10486Y20006D1*
X10410Y20083D1*
X10333Y20121D1*
X10218D1*
X10772D2*
Y19585D1*
Y19968D2*
X10887Y20083D1*
X10964Y20121D1*
X11078D1*
X11155Y20083D1*
X11193Y19968D1*
Y19585D1*
X11555Y20389D2*
Y19738D1*
X11593Y19624D1*
X11670Y19585D1*
X11746D1*
X11440Y20121D2*
X11708D1*
X11993D2*
Y19585D1*
Y19891D2*
X12032Y20006D1*
X12108Y20083D1*
X12185Y20121D1*
X12300D1*
X12738D2*
X12662Y20083D1*
X12585Y20006D1*
X12547Y19891D1*
Y19815D1*
X12585Y19700D1*
X12662Y19624D1*
X12738Y19585D1*
X12853D1*
X12929Y19624D1*
X13006Y19700D1*
X13044Y19815D1*
Y19891D1*
X13006Y20006D1*
X12929Y20083D1*
X12853Y20121D1*
X12738D1*
X13291Y20389D2*
Y19585D1*
X4862Y10877D2*
Y10188D1*
X4518Y10532D2*
X5206D1*
X9309Y18109D2*
Y18913D1*
X9003Y18109D1*
X8697Y18913D1*
Y18109D1*
X10015Y18645D2*
Y18109D1*
Y18530D2*
X9939Y18607D1*
X9862Y18645D1*
X9748D1*
X9671Y18607D1*
X9595Y18530D1*
X9556Y18415D1*
Y18339D1*
X9595Y18224D1*
X9671Y18148D1*
X9748Y18109D1*
X9862D1*
X9939Y18148D1*
X10015Y18224D1*
X10301Y18645D2*
X10530Y18109D1*
X10454Y17956D1*
X10377Y17879D1*
X10301Y17841D1*
X10262D1*
X10760Y18645D2*
X10530Y18109D1*
X11824Y18721D2*
Y18759D1*
X11862Y18836D1*
X11900Y18874D1*
X11977Y18912D1*
X12130D1*
X12206Y18874D1*
X12244Y18836D1*
X12283Y18759D1*
Y18683D1*
X12244Y18606D1*
X12168Y18492D1*
X11785Y18109D1*
X12321D1*
X12798Y18912D2*
X12683Y18874D1*
X12606Y18759D1*
X12568Y18568D1*
Y18453D1*
X12606Y18262D1*
X12683Y18147D1*
X12798Y18109D1*
X12874D1*
X12989Y18147D1*
X13065Y18262D1*
X13104Y18453D1*
Y18568D1*
X13065Y18759D1*
X12989Y18874D1*
X12874Y18912D1*
X12798D1*
X13065Y18759D2*
X12606Y18262D1*
X13351Y18759D2*
X13428Y18798D1*
X13543Y18912D1*
Y18109D1*
X14287Y18645D2*
X14249Y18530D1*
X14173Y18453D1*
X14058Y18415D1*
X14020D1*
X13905Y18453D1*
X13829Y18530D1*
X13790Y18645D1*
Y18683D1*
X13829Y18798D1*
X13905Y18874D1*
X14020Y18912D1*
X14058D1*
X14173Y18874D1*
X14249Y18798D1*
X14287Y18645D1*
Y18453D1*
X14249Y18262D1*
X14173Y18147D1*
X14058Y18109D1*
X13982D1*
X13867Y18147D1*
X13829Y18224D1*
X4649Y12580D2*
X5091D1*
X15527Y13909D2*
X15489Y13870D1*
X15527Y13832D1*
X15566Y13870D1*
X15527Y13909D1*
M02*
